<svg width="45" height="33" viewBox="0 0 45 33" fill="none" xmlns="http://www.w3.org/2000/svg">
<rect width="45" height="33" fill="#1E1E1E"/>
<g clip-path="url(#clip0_19207_2)">
<rect x="-979" y="-4592" width="1440" height="5781" rx="3" fill="#101111"/>
<rect x="-329" y="-40" width="397" height="201" rx="24" fill="#151515" fill-opacity="0.4"/>
<rect x="-329" y="-40" width="397" height="201" rx="24" stroke="url(#paint0_linear_19207_2)" stroke-width="1.5"/>
<path d="M19.5579 23.6429C19.5579 28.6823 16.0877 32.5 10.807 32.5C5.52632 32.5 1 28.2241 1 20.5887C1 11.1207 8.09123 3.02709 17.2947 1.5V7.15025C12.014 8.21921 8.09123 12.0369 8.09123 16.4655C8.99649 15.8547 10.2035 15.3965 12.1649 15.3965C16.0877 15.3965 19.5579 18.298 19.5579 23.6429ZM44 23.6429C44 28.6823 40.3789 32.5 35.0982 32.5C29.9684 32.5 25.2912 28.2241 25.2912 20.5887C25.2912 11.1207 32.3825 3.02709 41.7368 1.5V7.15025C36.4561 8.21921 32.5333 12.0369 32.5333 16.3128C33.4386 15.702 34.7965 15.3965 36.607 15.3965C40.5298 15.3965 44 18.298 44 23.6429Z" fill="url(#paint1_linear_19207_2)" stroke="url(#paint2_linear_19207_2)"/>
</g>
<defs>
<linearGradient id="paint0_linear_19207_2" x1="-236.47" y1="104.811" x2="-313.416" y2="-4.80084" gradientUnits="userSpaceOnUse">
<stop stop-color="#7D7AFB" stop-opacity="0"/>
<stop offset="1" stop-color="#FFD49C"/>
</linearGradient>
<linearGradient id="paint1_linear_19207_2" x1="43.8287" y1="14.9836" x2="1.15714" y2="15.432" gradientUnits="userSpaceOnUse">
<stop stop-color="#7A87FB"/>
<stop offset="1" stop-color="#FFD49C"/>
</linearGradient>
<linearGradient id="paint2_linear_19207_2" x1="1" y1="2" x2="47.5" y2="33" gradientUnits="userSpaceOnUse">
<stop stop-color="white"/>
<stop offset="0.294339" stop-color="white" stop-opacity="0"/>
</linearGradient>
<clipPath id="clip0_19207_2">
<rect x="-979" y="-4592" width="1440" height="5781" rx="3" fill="white"/>
</clipPath>
</defs>
</svg>
